<svg version="1.0" xmlns="http://www.w3.org/2000/svg" width="200px" height="200px" viewBox="0 0 190 190"><g fill="#ec0e7f" data-originalfillcolor="#000000"><path d="M50 90.5V136h17v17.5l13-13c7.2-7.1 13-12.7 13-12.3 0 .4-.9 2.3-2.1 4.2l-2.1 3.6H150V45H50v45.5zm54.9-23.9c12.4 6.2 17.3 22.2 11.1 36.1-4.3 9.7-12.5 14.6-24.1 14.5-7.5 0-12.1-1.6-17.3-6.2-6.3-5.6-8.1-10.1-8.1-20.5 0-9.9 1.7-14.5 7.2-19.7 7.6-7.2 21.4-9.1 31.2-4.2zm30.1 5.7c0 4.6-.3 13.2-.7 19l-.6 10.7H126v-5.3c0-3-.3-11.5-.7-19l-.6-13.7H135v8.3zm0 40.3v4.5l-4.7-.3-4.8-.3-.3-4.3-.3-4.2H135v4.6z"/><path d="M85.4 75c-3.2 1.3-7.2 6.6-8.4 11.1-1.7 6.4.3 13.1 5.4 17.9 2.1 1.9 4 2.5 8.9 2.8 7.6.4 11.6-1.7 14.7-7.7 4-8 1.5-19-5.3-23.1-3.4-2.1-11.4-2.6-15.3-1z"/></g></svg>